# xmcd CD database file
#
# Track frame offsets:
#	150
#	20212
#	53775
#
# Disc length: 981 seconds
#
# Revision: 0
# Processed by: cddbd v1.5PL3 Copyright (c) Steve Scherf et al.
# Submitted via: CDex 1.51
#
DISCID=2203d303
DTITLE=大橋りえ - Turn Into Love
DYEAR=1999
DGENRE=JPop
TTITLE0=Turn Into Love
TTITLE1=Turn Into Love 〜Bobby D'Ambrosio Club Mix〜
TTITLE2=Turn Into Love 〜Instrumental〜
EXTD=YEAR: 1999
EXTT0=
EXTT1=
EXTT2=
PLAYORDER=
